<svg width="14" height="13" viewBox="0 0 14 13" fill="none" xmlns="http://www.w3.org/2000/svg">
<path d="M13.8173 4.31273L10.3172 7.61792C9.94826 7.96634 9.33333 7.70802 9.33333 7.19384V5.44474C5.81936 5.46832 4.33694 6.29818 5.32839 9.60957C5.43735 9.9735 5.01616 10.2553 4.7206 10.0308C3.77349 9.31134 2.91667 7.93523 2.91667 6.5462C2.91667 3.04773 5.77498 2.35349 9.33333 2.33375V0.583386C9.33333 0.0687405 9.94868 -0.188753 10.3172 0.159303L13.8173 3.46457C14.0608 3.69457 14.061 4.08254 13.8173 4.31273V4.31273ZM9.33333 9.21468V10.8886H1.55556V3.11087H2.7931C2.83237 3.11085 2.87124 3.10288 2.90736 3.08746C2.94348 3.07203 2.97611 3.04947 3.00329 3.02111C3.36673 2.64272 3.78683 2.34323 4.24322 2.10538C4.51374 1.96438 4.4135 1.55532 4.10844 1.55532H1.16667C0.522326 1.55532 0 2.07764 0 2.72198V11.2775C0 11.9219 0.522326 12.4442 1.16667 12.4442H9.72222C10.3666 12.4442 10.8889 11.9219 10.8889 11.2775V9.11906C10.8889 8.91762 10.6897 8.77718 10.4997 8.84436C10.2335 8.93853 9.94831 8.9667 9.66875 8.92644C9.49205 8.90101 9.33333 9.03615 9.33333 9.21468V9.21468Z" fill="#4D4D4D"/>
</svg>
